Coordinates
version=1
nRows=16
nColumns=38
inDegrees=no

Units are S.I. units (second, meters, Newtons, ...)
If the header above contains a line with 'inDegrees', this indicates whether rotational values are in degrees (yes) or radians (no).

endheader
time	pelvis_tilt	pelvis_list	pelvis_rotation	pelvis_tx	pelvis_ty	pelvis_tz	hip_flexion_r	hip_adduction_r	hip_rotation_r	knee_angle_r	ankle_angle_r	subtalar_angle_r	mtp_angle_r	hip_flexion_l	hip_adduction_l	hip_rotation_l	knee_angle_l	ankle_angle_l	subtalar_angle_l	mtp_angle_l	lumbar_extension	lumbar_bending	lumbar_rotation	arm_flex_r	arm_add_r	arm_rot_r	elbow_flex_r	pro_sup_r	wrist_flex_r	wrist_dev_r	arm_flex_l	arm_add_l	arm_rot_l	elbow_flex_l	pro_sup_l	wrist_flex_l	wrist_dev_l
0.166667	0.0946018	-0.0137127	-0.0181381	0.751411	1.01788	-0.388543	0.331005	0.0453371	-0.123967	-0.32882	0.155486	-0.0249142	-0.00296313	-0.219455	0.0453539	-0.0154407	-1.09539	-0.136337	-0.012644	-0.0101544	-0.327259	0.0556448	-0.259376	-0.549651	-0.505876	-0.121893	1.97473	1.20696	-0.0106676	0.0134764	-0.446997	-0.525469	0.117946	2.34295	1.65349	0.0298793	-0.0388848
0.175	0.110301	-0.0198791	-0.0257947	0.751441	1.01377	-0.387172	0.319159	0.0619717	-0.0938271	-0.361092	0.122699	-0.0249142	-0.00296313	-0.211603	0.0234925	-0.0505346	-1.18458	-0.131653	-0.012644	-0.0101544	-0.345032	0.0603847	-0.2445	-0.539643	-0.515892	-0.13362	1.98364	1.20492	-0.0106676	0.0134764	-0.463778	-0.52251	0.11656	2.33948	1.6569	0.0298793	-0.0388848
0.183333	0.124105	-0.0272825	-0.0334889	0.751128	1.00889	-0.385932	0.310771	0.0800444	-0.0665898	-0.401716	0.101653	-0.0249142	-0.00296313	-0.199707	0.00171019	-0.0809276	-1.27243	-0.124192	-0.012644	-0.0101544	-0.361795	0.066484	-0.228004	-0.527044	-0.52608	-0.144067	1.99114	1.20538	-0.0106676	0.0134764	-0.478968	-0.518142	0.11364	2.33284	1.66031	0.0298793	-0.0388848
0.191667	0.135986	-0.0358753	-0.0411991	0.750484	1.00326	-0.38483	0.305798	0.0994712	-0.0423016	-0.450477	0.0924451	-0.0249142	-0.00296313	-0.183703	-0.0198609	-0.106517	-1.35887	-0.113974	-0.012644	-0.0101544	-0.37752	0.0739061	-0.209922	-0.511839	-0.53641	-0.153208	1.9972	1.20828	-0.0106676	0.0134764	-0.492536	-0.512373	0.109227	2.32298	1.66373	0.0298793	-0.0388848
0.2	0.145886	-0.0455257	-0.0488711	0.749517	0.996993	-0.383881	0.304046	0.120008	-0.0210555	-0.506632	0.0951523	-0.0249142	-0.00296313	-0.163418	-0.0408431	-0.127043	-1.44373	-0.101089	-0.012644	-0.0101544	-0.392133	0.0825452	-0.190346	-0.493992	-0.546781	-0.160973	2.00176	1.21347	-0.0106676	0.0134764	-0.504389	-0.505225	0.103455	2.30981	1.66713	0.0298793	-0.0388848
0.208333	0.153737	-0.0560042	-0.0564173	0.74824	0.990283	-0.383111	0.30503	0.141222	-0.00293951	-0.568619	0.109483	-0.0249142	-0.00296313	-0.138589	-0.0605792	-0.142115	-1.52668	-0.0857365	-0.012644	-0.0101544	-0.405516	0.0922085	-0.169426	-0.473467	-0.556984	-0.167247	2.00469	1.22062	-0.0106676	0.0134764	-0.514359	-0.496747	0.0965908	2.29318	1.67055	0.0298793	-0.0388848
0.216667	0.159514	-0.0669965	-0.0637209	0.74667	0.983403	-0.382542	0.307837	0.162506	0.0120449	-0.633939	0.1344	-0.0249142	-0.00296313	-0.10897	-0.0781833	-0.151309	-1.60708	-0.0682593	-0.012644	-0.0101544	-0.417548	0.10261	-0.147373	-0.450263	-0.566691	-0.171888	2.00589	1.22921	-0.0106676	0.0134764	-0.522227	-0.487029	0.0890292	2.27292	1.67404	0.0298793	-0.0388848
0.225	0.163287	-0.0781213	-0.0706445	0.744842	0.976627	-0.382186	0.311106	0.183135	0.024066	-0.699328	0.167978	-0.0249142	-0.00296313	-0.0744757	-0.0926654	-0.154306	-1.68408	-0.0491368	-0.012644	-0.0101544	-0.428156	0.113377	-0.124451	-0.424479	-0.575466	-0.17476	2.00529	1.2386	-0.0106676	0.0134764	-0.527799	-0.476208	0.0812481	2.24898	1.67772	0.0298793	-0.0388848
0.233333	0.165246	-0.0889378	-0.0770385	0.742801	0.970181	-0.382043	0.313187	0.202328	0.0334982	-0.761218	0.207609	-0.0249142	-0.00296313	-0.0352842	-0.103089	-0.151033	-1.75655	-0.0289435	-0.012644	-0.0101544	-0.437326	0.124054	-0.100982	-0.396377	-0.582796	-0.175779	2.00298	1.24814	-0.0106676	0.0134764	-0.531007	-0.46448	0.0737274	2.22156	1.68182	0.0298793	-0.0388848
0.241667	0.165714	-0.0989627	-0.0827383	0.740604	0.964245	-0.382103	0.31235	0.219309	0.040877	-0.816279	0.250465	-0.0249142	-0.00296313	0.00808286	-0.108731	-0.141759	-1.82325	-0.0082879	-0.012644	-0.0101544	-0.44512	0.13413	-0.0773495	-0.36643	-0.588158	-0.174945	1.99928	1.25722	-0.0106676	0.0134764	-0.531996	-0.452101	0.066858	2.19125	1.68655	0.0298793	-0.0388848
0.25	0.165129	-0.107709	-0.0875609	0.738312	0.958994	-0.382348	0.307017	0.233355	0.0468061	-0.861864	0.293958	-0.0249142	-0.00296313	0.0547556	-0.1092	-0.127112	-1.88288	0.0122371	-0.012644	-0.0101544	-0.451679	0.143068	-0.0539963	-0.335334	-0.591077	-0.172365	1.99478	1.26525	-0.0106676	0.0134764	-0.531178	-0.439386	0.0608759	2.15911	1.69213	0.0298793	-0.0388848
0.258333	0.163997	-0.114739	-0.0913233	0.736003	0.954596	-0.382744	0.295953	0.243857	0.0518668	-0.896246	0.33601	-0.0249142	-0.00296313	0.103594	-0.104498	-0.108042	-1.93424	0.0320972	-0.012644	-0.0101544	-0.457191	0.150356	-0.0313747	-0.303965	-0.591194	-0.168247	1.99027	1.27171	-0.0106676	0.0134764	-0.529212	-0.426705	0.0558476	2.12669	1.69855	0.0298793	-0.0388848
0.266667	0.162798	-0.119709	-0.0938928	0.733766	0.951199	-0.38324	0.2784	0.250375	0.0565625	-0.918636	0.375108	-0.0249142	-0.00296313	0.153331	-0.0950362	-0.085759	-1.97635	0.0508523	-0.012644	-0.0101544	-0.461833	0.155552	-0.00986946	-0.273308	-0.588315	-0.16287	1.98671	1.27624	-0.0106676	0.0134764	-0.526914	-0.414465	0.0517091	2.09586	1.70552	0.0298793	-0.0388848
0.275	0.161871	-0.1224	-0.0952505	0.731699	0.948903	-0.383781	0.254163	0.252683	0.0613013	-0.929053	0.410192	-0.0249142	-0.00296313	0.202762	-0.0815833	-0.0616512	-2.00847	0.0681901	-0.012644	-0.0101544	-0.465661	0.158316	0.0102888	-0.244364	-0.582446	-0.156539	1.98503	1.2788	-0.0106676	0.0134764	-0.525138	-0.40309	0.0483435	2.06857	1.71243	0.0298793	-0.0388848
0.283333	0.161322	-0.122709	-0.0955395	0.729895	0.947746	-0.384308	0.2236	0.250781	0.0664	-0.928093	0.44048	-0.0249142	-0.00296313	0.250899	-0.0651719	-0.0371894	-2.03015	0.083947	-0.012644	-0.0101544	-0.468559	0.158423	0.0290794	-0.21804	-0.573801	-0.149506	1.98598	1.27978	-0.0106676	0.0134764	-0.524636	-0.393001	0.0456622	2.04653	1.71845	0.0298793	-0.0388848
0.291667	0.161033	-0.120651	-0.0950567	0.728431	0.947711	-0.384767	0.187465	0.244874	0.0720936	-0.916684	0.465309	-0.0249142	-0.00296313	0.296997	-0.0469806	-0.0138155	-2.04124	0.0981117	-0.012644	-0.0101544	-0.470266	0.155769	0.0466845	-0.195056	-0.562795	-0.141885	1.99006	1.27987	-0.0106676	0.0134764	-0.525958	-0.384587	0.0436475	2.03098	1.72287	0.0298793	-0.0388848
